# xmcd CD database file
#
# Track frame offsets:
#	183
#	47583
#	58268
#	78095
#	87320
#	125120
#	136998
#	178033
#	191163
#	235733
#	251458
#	268545
#	278233
#	322158
#
# Disc length: 4491 seconds
#
# Revision: 1
# Processed by: cddbd v1.4PL0 Copyright (c) Steve Scherf et al.
# Submitted via: CDex 1.51
#
DISCID=cc11890e
DTITLE=Filarmonica de Viena - Reve Viennois  CD 2
DYEAR=1900
DGENRE=Clasica
TTITLE0=Johann Strauss - La valse de l'Empereur
TTITLE1=Johann Strauss - Electrophor
TTITLE2=Johann Strauss - Bitte schon
TTITLE3=Eduard Strauss - Mit extrapost
TTITLE4=Josef Strauss - Delirium Waltzer
TTITLE5=Johann Strauss - Tritsch Trasch Polka
TTITLE6=Johann Strauss - Journaux du matin
TTITLE7=Johann Strauss - Sous le Tonnerre et l'Eclair
TTITLE8=Jacques Offenbach - Orphee aux Enfers - Overture
TTITLE9=Johann Strauss - Marche de jubile pour Franz Jozef I
TTITLE10=Johann Strauss - Fata Morgana
TTITLE11=Carl Michael Ziehrer - Loslassen
TTITLE12=Johann Strauss - Le Beau Danube Bleu
TTITLE13=Marche de Radezky
EXTD=
EXTT0=
EXTT1=
EXTT2=
EXTT3=
EXTT4=
EXTT5=
EXTT6=
EXTT7=
EXTT8=
EXTT9=
EXTT10=
EXTT11=
EXTT12=
EXTT13=
PLAYORDER=
